<?xml version="1.0" standalone="no"?>
<!DOCTYPE svg PUBLIC "-//W3C//DTD SVG 20010904//EN"
 "http://www.w3.org/TR/2001/REC-SVG-20010904/DTD/svg10.dtd">
<svg version="1.0" xmlns="http://www.w3.org/2000/svg"
 width="1312.000000pt" height="200.000000pt" viewBox="0 0 1312.000000 200.000000"
 preserveAspectRatio="xMidYMid meet">

<g transform="translate(0.000000,200.000000) scale(0.100000,-0.100000)"
fill="#000000" stroke="none">
<path d="M53 1944 l-53 -54 0 -105 0 -105 1926 0 1925 0 50 51 49 50 0 110 0
109 -1922 -1 -1923 0 -52 -55z"/>
<path d="M4020 1855 l0 -125 -75 -75 -75 -75 -1925 0 -1925 0 0 -655 0 -655
125 -125 125 -125 2636 0 2635 0 49 50 49 50 2826 0 2826 0 49 -50 49 -50 855
0 856 0 0 855 0 855 -125 125 -125 125 -731 0 -730 0 -49 -50 -49 -50 -2826 0
-2826 0 -49 50 -49 50 -760 0 -761 0 0 -125z"/>
</g>
</svg>
